<svg class="svg-icon" style="width: 1em; height: 1em;vertical-align: middle;fill: currentColor;overflow: hidden;" viewBox="0 0 1024 1024" version="1.1" xmlns="http://www.w3.org/2000/svg"><path d="M942.65344 512.59392c0 204.82048-143.11424 375.88992-334.70464 419.55328v-357.74464h103.48544v-119.45984h-104.57088v-26.66496c0-51.2 22.40512-92.81536 75.73504-92.81536 21.36064 0 38.42048 3.21536 52.30592 7.4752l6.36928-124.80512c-22.40512-6.38976-50.11456-10.69056-86.36416-10.69056-46.94016 0-103.48544 13.90592-143.99488 52.28544-46.96064 42.68032-66.1504 112.00512-66.1504 174.91968v20.2752h-68.25984v119.48032h68.25984v363.08992c-205.80352-32.37888-363.37664-210.00192-363.37664-424.89856 0-237.83424 192.8192-430.65344 430.65344-430.65344s430.61248 192.8192 430.61248 430.65344z"  /></svg>